<?xml version="1.0" standalone="no"?>
<!DOCTYPE svg PUBLIC "-//W3C//DTD SVG 20010904//EN"
 "http://www.w3.org/TR/2001/REC-SVG-20010904/DTD/svg10.dtd">
<svg version="1.0" xmlns="http://www.w3.org/2000/svg"
 width="941.000000pt" height="508.000000pt" viewBox="0 0 941.000000 508.000000"
 preserveAspectRatio="xMidYMid meet">
<metadata>
Created by potrace 1.15, written by Peter Selinger 2001-2017
</metadata>
<g transform="translate(0.000000,508.000000) scale(0.100000,-0.100000)"
fill="#000000" stroke="none">
<path d="M7122 4109 c-23 -4 -70 -23 -103 -40 -100 -54 -161 -141 -182 -263
-13 -79 8 -175 55 -248 l31 -50 -143 -143 c-85 -85 -138 -145 -131 -149 6 -4
72 52 154 133 l142 139 25 -18 c119 -86 263 -99 391 -35 66 34 143 123 170
196 16 44 26 58 38 55 9 -3 137 -23 284 -46 196 -31 272 -39 280 -31 8 8 7 11
-2 11 -14 0 -509 77 -553 86 -27 5 -28 8 -28 64 0 82 -31 158 -90 223 -58 64
-125 102 -204 116 -67 12 -73 12 -134 0z m236 -162 c89 -94 87 -303 -4 -388
-23 -21 -26 -22 -41 -6 -16 15 -15 21 15 78 45 86 45 161 1 247 -27 51 -30 64
-19 77 17 20 23 19 48 -8z m-153 -193 c0 -174 3 -170 -99 -103 l-66 43 0 61 0
61 73 47 c39 26 77 45 82 44 6 -2 10 -62 10 -153z m97 109 c18 -30 23 -52 23
-108 0 -56 -5 -78 -23 -107 -25 -41 -42 -47 -62 -23 -10 12 -8 23 9 58 12 24
21 56 21 72 0 16 -9 48 -21 72 -17 35 -19 46 -9 58 20 24 37 18 62 -22z"/>
<path d="M549 4025 c-143 -45 -227 -167 -217 -319 13 -203 212 -335 404 -270
25 8 47 14 49 12 11 -13 625 -1080 625 -1085 0 -5 -16 -19 -36 -32 -47 -32
-107 -102 -144 -167 -37 -64 -70 -188 -70 -264 0 -114 47 -246 121 -341 l28
-36 -176 -182 c-96 -100 -173 -185 -169 -188 4 -4 87 73 185 171 l178 178 62
-42 c123 -84 288 -118 421 -87 93 22 146 47 223 106 l68 51 92 -81 c51 -45 96
-85 100 -89 5 -4 -3 -24 -17 -44 -35 -53 -64 -133 -72 -205 -6 -52 -10 -62
-28 -66 -11 -2 -266 -23 -566 -45 -300 -23 -547 -44 -549 -46 -18 -17 75 -13
547 24 295 24 551 42 568 42 29 0 32 -3 37 -41 8 -64 61 -160 118 -218 254
-253 681 -113 742 244 29 169 -67 371 -212 445 -23 11 -41 25 -39 30 29 79
254 610 258 610 3 0 112 -90 243 -200 210 -178 267 -220 255 -192 -1 5 -111
100 -243 211 -132 112 -241 206 -243 210 -1 4 14 47 34 95 29 69 40 86 53 81
107 -42 280 -55 399 -31 45 9 88 19 95 22 10 3 34 -53 88 -201 41 -115 79
-205 86 -205 10 0 10 7 2 28 -32 82 -139 385 -137 388 2 1 33 18 70 37 221
115 359 311 403 570 6 36 7 37 48 37 72 0 500 -29 505 -35 2 -2 -93 -235 -212
-516 -120 -281 -214 -515 -209 -520 5 -5 107 224 227 509 121 284 222 520 225
524 5 6 322 -10 327 -16 1 0 13 -91 28 -201 15 -110 29 -212 32 -226 5 -24 1
-28 -48 -43 -76 -25 -127 -57 -182 -115 -72 -78 -99 -146 -104 -262 -4 -85 -1
-102 23 -163 15 -37 25 -68 23 -70 -1 -1 -63 -40 -135 -87 -123 -78 -149 -99
-123 -99 6 0 69 38 140 85 l131 85 53 -54 c146 -146 377 -162 540 -38 l40 30
116 -110 117 -110 -42 -63 c-45 -66 -85 -170 -85 -217 0 -35 30 -35 -494 -3
-225 14 -412 23 -414 20 -3 -3 -3 -8 1 -11 3 -3 205 -18 449 -32 l443 -27 13
-84 c40 -264 252 -451 512 -451 138 0 268 55 365 154 72 74 109 140 134 238
l19 72 43 -2 c24 -2 413 -30 865 -63 451 -32 824 -59 827 -59 4 0 7 -18 7 -40
0 -102 84 -226 188 -277 49 -24 69 -28 142 -28 76 0 92 4 152 33 76 37 120 83
155 160 81 176 -5 385 -187 453 -104 39 -252 15 -327 -53 -12 -11 -26 -19 -31
-17 -5 2 -80 69 -165 148 l-156 143 39 52 c54 71 106 185 126 273 24 111 15
293 -20 392 -45 128 -130 252 -225 326 -28 22 -49 45 -47 51 2 6 67 108 143
225 182 280 185 286 175 293 -5 3 -85 -111 -177 -253 l-167 -259 -71 34 c-315
148 -678 59 -894 -220 l-30 -40 -34 20 c-19 12 -82 51 -141 87 -65 40 -108 61
-108 53 0 -7 61 -51 135 -96 74 -45 135 -84 135 -87 0 -2 -11 -26 -25 -52 -86
-170 -93 -400 -19 -586 15 -38 23 -70 18 -75 -5 -4 -96 -57 -203 -116 l-194
-107 -20 29 c-69 98 -191 181 -306 208 -35 8 -65 16 -67 19 -3 3 28 445 40
560 4 35 2 47 -7 44 -8 -2 -19 -89 -34 -278 -12 -151 -22 -286 -22 -301 -1
-27 -3 -28 -49 -28 -96 0 -225 -48 -307 -115 l-40 -32 -120 112 -120 113 22
24 c12 13 34 50 50 83 25 54 28 70 28 170 0 104 -2 115 -32 175 -17 35 -30 67
-27 71 2 4 63 53 134 109 72 56 127 106 124 111 -3 6 -10 6 -17 1 -141 -111
-260 -202 -264 -202 -3 0 -26 18 -50 41 -64 59 -142 91 -235 97 l-76 4 -6 32
c-11 66 -57 419 -54 421 2 2 133 -6 292 -16 160 -10 292 -16 295 -14 13 14
-32 19 -295 36 -158 9 -290 21 -294 26 -11 12 -31 176 -23 183 5 4 28 12 53
19 145 42 265 181 292 339 58 339 -293 600 -607 453 -120 -56 -210 -175 -235
-312 -10 -56 -7 -149 7 -185 3 -8 -65 -35 -214 -84 -120 -40 -223 -75 -229
-77 -6 -2 -29 34 -52 79 -128 259 -382 418 -668 418 -219 0 -388 -71 -541
-227 -70 -70 -91 -100 -132 -186 -27 -56 -55 -126 -61 -154 -7 -29 -16 -53
-20 -53 -20 0 -524 82 -531 86 -5 3 -6 17 -3 32 9 44 -13 150 -45 218 -60 128
-179 220 -323 250 -177 37 -363 -41 -462 -194 l-39 -60 -101 43 c-55 23 -136
57 -179 75 l-78 33 8 46 c29 171 -60 321 -217 365 -68 19 -110 19 -171 1z
m102 -67 c1 -7 1 -20 0 -28 0 -10 1 -11 5 -2 8 17 31 15 38 -4 3 -9 6 -56 6
-106 l0 -90 38 3 c83 5 97 -10 35 -36 -69 -29 -133 -81 -84 -68 15 4 22 -5 36
-41 27 -70 20 -76 -79 -76 -80 0 -87 2 -102 25 -17 26 -12 45 11 45 10 0 8 14
-12 56 -23 51 -25 63 -19 138 10 121 16 148 32 142 9 -3 14 2 14 14 0 28 21
36 38 14 11 -15 13 -15 9 -2 -3 9 -3 19 0 22 11 11 33 6 34 -6z m4480 -216
c151 -79 180 -273 57 -388 -54 -52 -96 -68 -168 -68 -138 0 -240 102 -240 239
0 187 187 303 351 217z m-4035 -223 c93 -39 172 -74 176 -78 4 -3 0 -31 -8
-61 -65 -249 104 -509 360 -553 l66 -11 0 -186 0 -186 -72 -12 c-40 -7 -98
-23 -129 -35 l-55 -23 -316 545 -316 545 41 37 c23 20 49 48 56 63 8 14 17 26
21 26 4 0 83 -32 176 -71z m700 12 c5 -5 25 -11 44 -13 l35 -3 3 -219 c2 -183
5 -223 18 -237 29 -32 14 -54 -39 -57 -52 -3 -70 15 -49 49 8 12 12 80 12 201
l0 183 -120 0 -120 0 0 -182 c0 -110 4 -184 10 -188 6 -3 10 -19 10 -36 0 -28
-2 -29 -45 -29 -51 0 -65 17 -46 53 7 14 12 102 14 242 l2 220 40 3 c22 2 44
8 50 13 12 12 168 12 181 0z m1936 -138 c30 -34 98 -165 98 -188 0 -18 -21
-34 -112 -87 -62 -35 -192 -110 -289 -166 -98 -56 -184 -102 -192 -102 -18 0
-237 148 -237 160 0 5 60 42 133 84 72 42 224 129 337 195 113 66 214 120 226
120 11 1 28 -7 36 -16z m906 -59 c28 -57 103 -138 159 -171 24 -14 43 -27 43
-29 0 -5 -80 -197 -84 -201 -1 -1 -127 6 -281 15 l-280 17 -7 85 c-3 47 -11
105 -18 129 -6 24 -9 45 -7 47 4 4 435 151 448 153 3 1 15 -20 27 -45z m-2222
-184 c140 -22 259 -40 263 -40 5 0 11 -57 14 -127 5 -135 25 -220 73 -315 13
-26 24 -52 24 -57 0 -14 -149 -104 -163 -98 -10 4 -517 427 -560 467 -5 4 6
29 23 56 17 27 38 73 46 102 9 28 18 52 20 52 3 0 120 -18 260 -40z m1424 -50
c0 -9 -8 -24 -17 -32 -21 -17 -550 -322 -576 -331 -20 -7 -35 8 -73 71 -28 47
-23 51 21 22 17 -11 36 -20 43 -20 12 0 451 247 542 305 37 24 60 18 60 -15z
m1152 3 l76 -5 6 -42 c3 -22 8 -65 12 -93 l7 -53 -109 6 c-60 3 -130 9 -156
13 l-47 6 31 70 c16 39 34 81 39 94 8 19 14 22 37 17 15 -4 61 -10 104 -13z
m-2615 -415 l234 -197 -83 -54 c-209 -134 -379 -239 -381 -236 -92 130 -233
216 -384 235 l-53 6 0 188 0 187 58 7 c70 8 180 58 237 109 l40 35 50 -42 c27
-22 154 -130 282 -238z m708 167 c30 -51 55 -97 55 -102 0 -14 -52 -35 -62
-25 -4 4 -32 49 -62 100 l-54 91 26 20 c15 11 30 17 34 15 5 -3 33 -47 63 -99z
m825 -80 l0 -185 -30 0 c-17 0 -38 9 -50 22 -18 20 -20 35 -20 158 0 94 4 141
13 152 16 20 47 37 70 38 16 0 17 -15 17 -185z m-277 90 c16 -33 18 -34 79
-37 l63 -3 0 -55 0 -55 -75 -3 c-105 -4 -112 -1 -149 67 -17 32 -31 61 -31 64
0 6 81 57 91 57 3 0 13 -16 22 -35z m-707 -410 c34 -33 90 -76 123 -95 101
-57 96 -45 58 -133 -18 -44 -37 -80 -42 -80 -12 -3 -403 325 -404 338 -1 6 32
31 72 56 l72 47 29 -37 c16 -20 57 -63 92 -96z m-111 -136 c99 -84 194 -164
212 -180 l32 -28 -130 -314 -130 -315 -52 14 c-132 35 -279 1 -392 -92 l-41
-33 -101 89 -102 90 39 57 c62 93 84 170 84 293 0 90 -4 116 -28 180 -15 41
-29 82 -32 90 -3 11 62 57 218 157 123 77 228 142 233 142 6 1 91 -67 190
-150z m4787 74 c143 -63 253 -254 219 -378 -9 -36 -9 -38 4 -21 22 29 28 79
17 133 -6 26 -9 49 -7 51 7 7 59 -83 86 -148 15 -36 33 -94 39 -128 32 -181
-80 -324 -278 -352 -159 -22 -316 41 -371 149 -57 111 -29 231 99 427 27 42
50 85 50 95 0 11 4 19 10 19 16 0 34 -43 40 -95 l5 -50 20 35 c13 24 19 55 20
100 0 86 -8 113 -53 162 l-37 41 40 -7 c22 -4 66 -19 97 -33z m-2289 -200 c11
-10 62 -61 114 -113 85 -86 93 -98 93 -133 0 -30 -4 -40 -20 -44 -10 -3 -22
-14 -25 -24 -4 -11 -17 -26 -29 -35 -31 -20 -73 -4 -82 31 -6 25 -6 25 -124
25 -110 0 -119 -1 -125 -20 -4 -11 -18 -28 -31 -37 -32 -20 -71 -5 -80 32 -4
17 -13 25 -28 25 -12 0 -27 5 -33 11 -12 12 -5 245 8 271 8 15 30 18 167 21
86 1 161 4 166 5 5 1 18 -6 29 -15z m-3328 -53 c19 -36 35 -24 -249 -187
l-218 -126 -19 24 c-10 13 -19 31 -19 40 0 17 468 292 482 283 4 -3 15 -18 23
-34z m-497 -221 c-24 -14 -22 -38 5 -73 20 -25 26 -27 45 -17 22 12 22 11 22
-78 0 -49 5 -93 10 -96 27 -17 2 -25 -80 -25 -89 0 -104 6 -75 30 12 10 15 39
15 141 l0 129 38 0 c30 -1 34 -3 20 -11z m5530 -324 c6 -13 43 -58 83 -99 146
-154 316 -227 528 -227 168 1 340 63 459 167 28 25 56 44 61 42 5 -2 79 -68
165 -147 138 -127 154 -146 142 -160 -23 -26 -54 -94 -61 -135 l-8 -38 -51 6
c-28 3 -402 31 -831 61 -429 30 -799 58 -822 61 l-43 5 0 59 c0 32 -10 88 -22
126 -12 38 -22 73 -23 77 0 9 384 226 401 227 6 0 16 -11 22 -25z m-723 -114
c44 -22 94 -43 110 -48 l30 -9 -1 -114 c-3 -257 -55 -364 -232 -481 l-73 -48
-51 31 c-28 18 -80 58 -114 91 -104 96 -137 193 -138 397 l-1 125 50 16 c28 9
71 29 97 43 99 57 200 56 323 -3z m-3767 -221 c12 -18 22 -44 22 -56 0 -15 6
-24 15 -24 9 0 15 9 15 24 0 29 41 91 60 91 19 0 60 -62 60 -91 0 -15 6 -24
15 -24 9 0 15 9 15 23 0 28 48 99 63 94 19 -6 57 -68 57 -93 0 -15 6 -24 15
-24 9 0 15 -9 15 -25 0 -14 -7 -28 -15 -31 -11 -5 -15 -24 -15 -80 0 -59 3
-74 15 -74 10 0 15 -10 15 -30 0 -19 -5 -30 -14 -30 -7 0 -16 -13 -19 -30 -11
-55 -103 -55 -114 0 -7 39 -29 39 -36 0 -7 -33 -39 -47 -82 -36 -18 5 -27 15
-32 36 -7 39 -29 39 -36 0 -5 -21 -14 -31 -32 -36 -43 -11 -75 3 -82 36 -3 17
-12 30 -19 30 -19 0 -18 49 1 56 11 5 15 23 15 79 0 56 -4 74 -15 79 -8 3 -15
17 -15 31 0 16 6 25 15 25 9 0 15 9 15 23 0 28 48 99 63 94 7 -2 22 -18 35
-37z m6356 -169 c17 -18 33 -54 46 -106 26 -100 26 -119 1 -112 -13 3 -18 1
-14 -8 6 -16 -31 -55 -52 -55 -17 0 -55 35 -55 50 0 6 11 22 25 35 13 14 20
25 15 25 -5 0 -17 -11 -28 -25 -18 -23 -27 -25 -95 -25 -68 0 -76 -2 -82 -21
-4 -11 -18 -25 -31 -31 -19 -9 -28 -8 -44 7 -11 10 -20 26 -20 35 0 11 -8 16
-22 16 -22 -1 -23 4 -26 70 -2 54 1 74 13 84 9 7 15 29 15 52 l0 39 164 -1
164 -2 26 -27z"/>
<path d="M4926 3707 c-22 -12 -53 -39 -70 -60 -26 -33 -31 -48 -34 -107 -4
-61 -1 -75 22 -114 48 -82 129 -118 218 -97 195 45 222 294 41 385 -47 24
-130 20 -177 -7z m182 -14 c106 -50 134 -197 54 -285 -81 -90 -202 -92 -279
-5 -40 46 -57 98 -49 150 21 131 151 198 274 140z"/>
<path d="M7655 2048 c-7 -23 -18 -34 -39 -39 -43 -12 -65 -37 -82 -95 -10 -35
-26 -62 -46 -79 -17 -14 -27 -30 -22 -34 10 -9 244 -71 267 -71 14 0 14 3 0
31 -9 19 -13 42 -9 62 20 103 19 122 -9 155 -19 23 -25 40 -23 64 4 45 -24 50
-37 6z"/>
<path d="M6160 1325 c-9 -26 -17 -35 -34 -35 -31 0 -63 -37 -80 -93 -7 -25
-26 -57 -41 -70 l-27 -23 121 -32 c145 -38 145 -38 130 -11 -7 14 -9 48 -4 98
6 72 5 79 -18 107 -18 22 -22 35 -16 56 7 26 3 38 -12 38 -4 0 -13 -16 -19
-35z"/>
<path d="M7458 3197 c-388 -115 -674 -205 -669 -210 11 -11 1353 385 1359 401
2 7 0 12 -5 11 -4 0 -313 -91 -685 -202z"/>
</g>
</svg>
